Coordinates
version=1
nRows=13
nColumns=40
inDegrees=yes

Units are S.I. units (second, meters, Newtons, ...)
Angles are in degrees.

endheader
time	pelvis_tilt	pelvis_list	pelvis_rotation	pelvis_tx	pelvis_ty	pelvis_tz	hip_flexion_r	hip_adduction_r	hip_rotation_r	knee_angle_r	knee_angle_r_beta	ankle_angle_r	subtalar_angle_r	mtp_angle_r	hip_flexion_l	hip_adduction_l	hip_rotation_l	knee_angle_l	knee_angle_l_beta	ankle_angle_l	subtalar_angle_l	mtp_angle_l	lumbar_extension	lumbar_bending	lumbar_rotation	arm_flex_r	arm_add_r	arm_rot_r	elbow_flex_r	pro_sup_r	wrist_flex_r	wrist_dev_r	arm_flex_l	arm_add_l	arm_rot_l	elbow_flex_l	pro_sup_l	wrist_flex_l	wrist_dev_l
      0.98000000	     -1.70815198	      3.98085135	     -0.20421408	      0.34795153	      0.95708059	      1.44248119	     26.66787486	    -14.60477610	    -16.12273623	    -45.31184867	     -0.79084095	      2.09199382	    -13.72216504	     13.92985345	     -1.92596578	     -6.21293794	     11.04384151	     -8.67772875	     -0.15145494	      6.23860259	      1.44935594	     -2.02484763	     -0.34287401	     -5.01350757	     -4.72059580	     -1.27748801	    -12.79603007	     -4.96667376	     25.40249112	     89.95437384	      0.00000000	      0.00000000	      4.25436757	     13.44672844	      9.34829784	     22.53513202	     89.95437384	      0.00000000	      0.00000000
      0.99000000	     -1.87274092	      3.79003137	      0.37691693	      0.35976577	      0.95549807	      1.44140203	     27.33488542	    -14.44730913	    -16.83724373	    -42.40419132	     -0.74009276	      2.14638174	    -12.87248180	     13.99270203	     -2.67814804	     -6.04990601	     10.56610122	     -8.46719821	     -0.14778049	      6.70947712	      1.24880730	     -2.55860010	     -0.36070460	     -4.75254992	     -5.40794475	     -1.51603961	    -12.78829832	     -5.15339270	     24.21387128	     89.95437384	      0.00000000	      0.00000000	      5.54492410	     13.93903192	      9.37687622	     23.74849891	     89.95437384	      0.00000000	      0.00000000
      1.00000000	     -1.60484616	      3.29069840	      0.99529725	      0.37218115	      0.95446221	      1.44077484	     27.20975780	    -13.94126802	    -17.83256576	    -39.17922280	     -0.68380644	      2.02140512	    -11.98534588	     14.14172734	     -3.80462548	     -5.36376620	     10.93365820	     -8.39466041	     -0.14651446	      5.54188292	      0.49712484	    -10.62964793	     -0.85574445	     -4.17108414	     -6.08614379	     -1.84452669	    -12.76982095	     -5.66838576	     23.23094527	     89.95437384	      0.00000000	      0.00000000	      6.86826571	     14.43633142	      9.30169610	     25.00831057	     89.95437384	      0.00000000	      0.00000000
      1.01000000	     -1.55873855	      3.05388199	      1.58879700	      0.38441882	      0.95294204	      1.43998123	     27.35916571	    -13.72703894	    -18.66856420	    -35.86122708	     -0.62589649	      1.80681809	    -10.96104169	     14.13083330	     -4.74398233	     -5.07585298	     10.50342832	     -8.32067462	     -0.14522317	      6.11180756	      0.44781308	    -10.88230817	     -1.07900078	     -3.86636171	     -6.72785722	     -2.11417498	    -12.70516614	     -6.43505919	     22.14147931	     89.95437384	      0.00000000	      0.00000000	      8.15018240	     14.97177251	      9.08403017	     26.19688887	     89.95437384	      0.00000000	      0.00000000
      1.02000000	     -1.39716619	      2.81722929	      2.11527930	      0.39689395	      0.95142588	      1.43954387	     27.34024457	    -13.49836188	    -19.53229008	    -32.56906205	     -0.56843737	      1.73490507	     -9.63639014	     14.07696765	     -5.80156319	     -4.71592456	     10.40906850	     -8.25553065	     -0.14408619	      6.59381442	      0.03726791	    -11.22773088	     -1.40085522	     -3.58415042	     -7.28245498	     -2.41749134	    -12.71289230	     -6.98787416	     21.17096969	     89.95437384	      0.00000000	      0.00000000	      9.31710352	     15.54664952	      8.72847701	     27.60621967	     89.95437384	      0.00000000	      0.00000000
      1.03000000	     -1.36865168	      2.67182254	      2.45375709	      0.40948390	      0.94958153	      1.43949806	     27.48827383	    -13.23216815	    -20.18520215	    -29.26036826	     -0.51068977	      1.70824909	     -8.25424840	     14.06440020	     -6.77493845	     -4.46267884	     10.45657468	     -8.08133341	     -0.14104588	      7.00220409	     -0.40583157	    -11.52861524	     -1.53819519	     -3.40819161	     -7.66071187	     -2.73376842	    -12.72452982	     -7.55535678	     20.21901605	     89.95437384	      0.00000000	      0.00000000	     10.44469480	     16.16339266	      8.35325817	     28.91117819	     89.95437384	      0.00000000	      0.00000000
      1.04000000	     -0.86770031	      2.30169490	      2.94148569	      0.42230421	      0.94848323	      1.43944133	     26.83505896	    -12.78795484	    -21.23577555	    -25.76601632	     -0.44970182	      1.85233346	     -6.41240896	     13.85345435	     -8.22187367	     -3.83785107	     10.73264705	     -8.00606728	     -0.13973223	      7.24413404	     -1.31184672	    -12.09295937	     -2.23552124	     -2.94840606	     -8.08876815	     -3.05764025	    -12.64589028	     -9.04943273	     19.44119706	     89.95437384	      0.00000000	      0.00000000	     11.71415912	     16.69725728	      7.91206846	     30.18246032	     89.95437384	      0.00000000	      0.00000000
      1.05000000	     -0.61092166	      2.06594883	      3.29927689	      0.43522594	      0.94684857	      1.43965640	     26.58767382	    -12.44926503	    -21.96075497	    -22.63100774	     -0.39498560	      2.20834610	     -4.17880637	     13.42787901	     -9.37744334	     -3.35615786	     11.27701044	     -7.97462088	     -0.13918339	      7.43121151	     -2.40453919	    -12.69634623	     -2.59307443	     -2.66845787	     -8.43002875	     -3.37399852	    -12.67262798	     -9.93599349	     18.64488449	     89.95437384	      0.00000000	      0.00000000	     12.76972744	     17.30648995	      7.42382058	     31.54595616	     89.95437384	      0.00000000	      0.00000000
      1.06000000	     -0.32882691	      1.80561578	      3.65400873	      0.44819864	      0.94523353	      1.43994908	     26.23396306	    -12.06712789	    -22.72071670	    -19.54846019	     -0.34118499	      2.40287846	     -1.75942087	     12.61594165	    -10.54081527	     -2.79296129	     12.00925533	     -7.99664695	     -0.13956782	      7.40488253	     -3.93553069	    -13.61774656	     -2.98533224	     -2.34860229	     -8.69643320	     -3.73700103	    -12.63995170	    -11.35663972	     18.00640271	     89.95437384	      0.00000000	      0.00000000	     13.86799933	     17.83539169	      7.00441535	     32.81946618	     89.95437384	      0.00000000	      0.00000000
      1.07000000	     -0.10341908	      1.50010362	      3.93870683	      0.46124259	      0.94346532	      1.44036872	     25.91835551	    -11.59310016	    -23.33516448	    -16.60917055	     -0.28988471	      2.53697187	      0.77003656	     11.82016252	    -11.57397797	     -2.20807469	     12.50262697	     -8.15911669	     -0.14240345	      7.54761383	     -4.72127249	    -14.34006856	     -3.25423851	     -1.98230611	     -8.97055406	     -4.02766386	    -12.69484638	    -12.49593455	     17.37020047	     89.95437384	      0.00000000	      0.00000000	     14.83883321	     18.32441304	      6.71634928	     34.06420324	     89.95437384	      0.00000000	      0.00000000
      1.08000000	     -0.36540715	      1.51106281	      4.14756142	      0.47389511	      0.94092189	      1.44097899	     26.27218597	    -11.38931104	    -23.04497367	    -14.06258366	     -0.24543839	      2.64864620	      2.52109774	     11.65897675	    -12.03701729	     -2.06143162	     12.50092504	     -8.38881141	     -0.14641238	      7.81785771	     -4.89902799	    -14.55453380	     -3.03892127	     -2.02805523	     -9.19042391	     -4.41472708	    -12.77785525	    -12.88770794	     16.88261726	     89.95437384	      0.00000000	      0.00000000	     15.67418598	     18.84708527	      6.54617875	     35.38476013	     89.95437384	      0.00000000	      0.00000000
      1.09000000	      0.15071328	      0.90936040	      4.52267390	      0.48767199	      0.93965466	      1.44175463	     25.49857269	    -10.75527116	    -24.62581422	    -11.67914531	     -0.20383954	      0.81387173	      5.80849267	      0.51393304	    -13.15789094	     -0.89992507	     13.90683983	     -8.97689475	     -0.15667637	      7.19773528	     -6.82025918	    -17.80348156	     -3.59455234	     -1.31455655	     -9.40345724	     -4.66415549	    -12.76172333	    -14.91964912	     16.28382776	     89.95437384	      0.00000000	      0.00000000	     16.63466158	     19.23893366	      6.09753189	     36.50875046	     89.95437384	      0.00000000	      0.00000000
      1.10000000	      0.28985577	      0.68018550	      4.84663029	      0.50099566	      0.93787426	      1.44246473	     25.40226235	    -10.48685728	    -25.32737404	    -10.21603989	     -0.17830353	      0.63795633	      7.80065099	      0.44820681	    -13.93862012	     -0.35699819	     13.88239921	     -9.46319942	     -0.16516399	      7.46413621	     -6.86220723	    -17.88233855	     -3.75070954	     -1.06139998	     -9.68409099	     -4.91835172	    -12.79517083	    -15.96814982	     15.81858544	     89.95437384	      0.00000000	      0.00000000	     17.38863213	     19.67295768	      5.90085268	     37.70251946	     89.95437384	      0.00000000	      0.00000000
